<mxfile host="65bd71144e">
    <diagram id="V8m6LRnJ0qjSiGXQXF0a" name="PÃ¡gina-1">
        <mxGraphModel dx="588" dy="348" grid="1" gridSize="10" guides="1" tooltips="1" connect="1" arrows="1" fold="1" page="1" pageScale="1" pageWidth="827" pageHeight="1169" math="0" shadow="0">
            <root>
                <mxCell id="0"/>
                <mxCell id="1" parent="0"/>
                <mxCell id="3" style="edgeStyle=none;html=1;" edge="1" parent="1">
                    <mxGeometry relative="1" as="geometry">
                        <mxPoint x="290" y="130" as="targetPoint"/>
                        <mxPoint x="290" y="80" as="sourcePoint"/>
                    </mxGeometry>
                </mxCell>
                <mxCell id="5" style="edgeStyle=none;html=1;startArrow=none;" edge="1" parent="1" source="6">
                    <mxGeometry relative="1" as="geometry">
                        <mxPoint x="290" y="230" as="targetPoint"/>
                    </mxGeometry>
                </mxCell>
                <mxCell id="4" value="Cant_minutos" style="shape=parallelogram;perimeter=parallelogramPerimeter;whiteSpace=wrap;html=1;fixedSize=1;fillColor=#3399FF;" vertex="1" parent="1">
                    <mxGeometry x="230" y="120" width="120" height="60" as="geometry"/>
                </mxCell>
                <mxCell id="7" value="" style="edgeStyle=none;html=1;endArrow=none;" edge="1" parent="1" source="4" target="6">
                    <mxGeometry relative="1" as="geometry">
                        <mxPoint x="290" y="230" as="targetPoint"/>
                        <mxPoint x="290" y="180" as="sourcePoint"/>
                    </mxGeometry>
                </mxCell>
                <mxCell id="9" style="edgeStyle=none;html=1;exitX=1;exitY=0.5;exitDx=0;exitDy=0;entryX=0.625;entryY=0;entryDx=0;entryDy=0;entryPerimeter=0;" edge="1" parent="1" source="6">
                    <mxGeometry relative="1" as="geometry">
                        <mxPoint x="470" y="300" as="targetPoint"/>
                        <mxPoint x="350" y="250" as="sourcePoint"/>
                        <Array as="points">
                            <mxPoint x="380" y="250"/>
                            <mxPoint x="370" y="250"/>
                            <mxPoint x="470" y="250"/>
                        </Array>
                    </mxGeometry>
                </mxCell>
                <mxCell id="10" style="edgeStyle=none;html=1;exitX=0;exitY=0.5;exitDx=0;exitDy=0;entryX=0.381;entryY=-0.066;entryDx=0;entryDy=0;entryPerimeter=0;" edge="1" parent="1" source="6">
                    <mxGeometry relative="1" as="geometry">
                        <mxPoint x="98.58000000000004" y="296.03999999999996" as="targetPoint"/>
                        <Array as="points">
                            <mxPoint x="100" y="250"/>
                        </Array>
                    </mxGeometry>
                </mxCell>
                <mxCell id="6" value="cant_minutos&amp;lt;=3" style="rhombus;whiteSpace=wrap;html=1;fillColor=#3333FF;" vertex="1" parent="1">
                    <mxGeometry x="227.5" y="200" width="125" height="100" as="geometry"/>
                </mxCell>
                <mxCell id="16" style="edgeStyle=none;html=1;endArrow=none;endFill=0;" edge="1" parent="1">
                    <mxGeometry relative="1" as="geometry">
                        <mxPoint x="330" y="430" as="targetPoint"/>
                        <mxPoint x="450" y="360" as="sourcePoint"/>
                        <Array as="points">
                            <mxPoint x="450" y="430"/>
                        </Array>
                    </mxGeometry>
                </mxCell>
                <mxCell id="15" style="edgeStyle=none;html=1;endArrow=none;endFill=0;" edge="1" parent="1">
                    <mxGeometry relative="1" as="geometry">
                        <mxPoint x="340" y="430" as="targetPoint"/>
                        <mxPoint x="120" y="360" as="sourcePoint"/>
                        <Array as="points">
                            <mxPoint x="120" y="430"/>
                        </Array>
                    </mxGeometry>
                </mxCell>
                <mxCell id="13" style="edgeStyle=none;html=1;exitX=0;exitY=1;exitDx=0;exitDy=0;entryX=0;entryY=0.75;entryDx=0;entryDy=0;" edge="1" parent="1">
                    <mxGeometry relative="1" as="geometry">
                        <mxPoint x="370" y="360" as="sourcePoint"/>
                        <mxPoint x="370" y="345" as="targetPoint"/>
                    </mxGeometry>
                </mxCell>
                <mxCell id="18" style="edgeStyle=none;html=1;" edge="1" parent="1" source="17">
                    <mxGeometry relative="1" as="geometry">
                        <mxPoint x="287.5" y="510" as="targetPoint"/>
                    </mxGeometry>
                </mxCell>
                <mxCell id="24" style="edgeStyle=none;html=1;exitX=0.5;exitY=0;exitDx=0;exitDy=0;endArrow=none;endFill=0;" edge="1" parent="1" source="17">
                    <mxGeometry relative="1" as="geometry">
                        <mxPoint x="288" y="430" as="targetPoint"/>
                    </mxGeometry>
                </mxCell>
                <mxCell id="30" style="edgeStyle=none;html=1;entryX=0.5;entryY=0;entryDx=0;entryDy=0;endArrow=none;endFill=0;" edge="1" parent="1" source="17" target="29">
                    <mxGeometry relative="1" as="geometry"/>
                </mxCell>
                <mxCell id="17" value="valor_llamada" style="shape=document;whiteSpace=wrap;html=1;boundedLbl=1;fillColor=#0000FF;" vertex="1" parent="1">
                    <mxGeometry x="227.5" y="470" width="120" height="60" as="geometry"/>
                </mxCell>
                <mxCell id="28" value="inicio" style="ellipse;whiteSpace=wrap;html=1;fillColor=#0000FF;" vertex="1" parent="1">
                    <mxGeometry x="232.5" y="10" width="120" height="80" as="geometry"/>
                </mxCell>
                <mxCell id="29" value="fin" style="ellipse;whiteSpace=wrap;html=1;fillColor=#0000FF;" vertex="1" parent="1">
                    <mxGeometry x="247.5" y="550" width="80" height="70" as="geometry"/>
                </mxCell>
                <mxCell id="32" value="valor_llamada=300-50*(cant_minutos-3)" style="whiteSpace=wrap;html=1;fillColor=#0000FF;" vertex="1" parent="1">
                    <mxGeometry x="40" y="280" width="120" height="70" as="geometry"/>
                </mxCell>
                <mxCell id="35" value="valor_llamada=300&lt;br&gt;" style="whiteSpace=wrap;html=1;fillColor=#0000FF;" vertex="1" parent="1">
                    <mxGeometry x="400" y="300" width="120" height="70" as="geometry"/>
                </mxCell>
            </root>
        </mxGraphModel>
    </diagram>
</mxfile>